<svg viewBox="0 0 46 35" version="1.1" xmlns="http://www.w3.org/2000/svg" xmlns:xlink="http://www.w3.org/1999/xlink">
    <path d="M8,18.36 L8,32.32 C7.96909727,32.9861402 8.20497265,33.6371255 8.65541406,34.1288573 C9.10585548,34.6205892 9.73371029,34.9125094 10.4,34.94 L12.87,34.94 C13.4001934,34.94 13.83,34.5101934 13.83,33.98 C13.83,33.4498066 13.4001934,33.02 12.87,33.02 L10.47,33.02 C10.1447847,32.9533109 9.92380349,32.6500034 9.96,32.32 L9.96,19.32 L22.98,8.798 L36.06,19.32 L36.06,32.39 C36.0891689,32.7180937 35.8712436,33.0172068 35.55,33.09 L21.4,33.09 C20.8725681,33.09 20.445,33.5175681 20.445,34.045 C20.445,34.5724319 20.8725681,35 21.4,35 L35.55,35 C36.2150337,34.9740454 36.8422685,34.6839885 37.2927547,34.1940848 C37.7432409,33.704181 37.97979,33.054873 37.95,32.39 L37.95,18.36 L22.98,6.375 L8,18.36 Z M45.6,18.11 L22.98,0 L0.36,18.11 C0.161383166,18.2657587 0.035130792,18.4959891 0.0105764208,18.7471992 C-0.0139779503,18.9984093 0.0653033275,19.2487294 0.23,19.44 C0.3829414,19.6426899 0.613766537,19.7720797 0.866480048,19.796781 C1.11919356,19.8214824 1.37070472,19.7392382 1.56,19.57 L23.04,2.424 L44.53,19.57 C44.6915334,19.6916118 44.8878138,19.7582069 45.09,19.76 C45.3875754,19.7540172 45.6666686,19.6144706 45.85,19.38 C46.1183552,18.9576747 46.0084006,18.3991056 45.6,18.11 Z" id="Shape"></path>
</svg>