<svg id="Group_6_copy_17" data-name="Group 6 copy 17" xmlns="http://www.w3.org/2000/svg" width="53.75" height="50.031" viewBox="0 0 53.75 50.031">
<defs>
    <style>
      .cls-1 {
        fill-rule: evenodd;
      }
    </style>
  </defs>
  <path id="Ellipse_4_copy_10" data-name="Ellipse 4 copy 10" class="cls-1" d="M5376.76,174.032a1.421,1.421,0,1,1-1.39,1.419A1.4,1.4,0,0,1,5376.76,174.032Z" transform="translate(-5372 -130)"/>
  <path id="Ellipse_4_copy_10-2" data-name="Ellipse 4 copy 10" class="cls-1" d="M5424.04,142.593a1.734,1.734,0,1,1-1.7,1.732A1.715,1.715,0,0,1,5424.04,142.593Z" transform="translate(-5372 -130)"/>
  <circle id="Ellipse_4_copy_10-3" data-name="Ellipse 4 copy 10" cx="42.92" cy="3.781" r="3.7"/>
  <path id="Shape_1_copy_4" data-name="Shape 1 copy 4" class="cls-1" d="M5407.21,136.446c-0.39-2.481-9.47-3.259-15-2.222a27.648,27.648,0,0,0-9.22,3.472c-8.63,4.75-10.77,11.514-11.01,16.527s2.23,10.887,8.38,16.857c7.03,6.823,13.94,9.5,19.54,8.845s11.28-4.069,16.02-11.932c4.64-7.708,4.85-14.168,3.61-18.028a10.612,10.612,0,0,0-9.28-7.676c-6.52-.675-13.27,1.61-12.56,5.758,0.51,3,2.95,2.571,7.14,2.085a2.677,2.677,0,0,1,3.04,2.5c0.12,0.81-.8,2.156-2.13,2.672-1.8.69-4.23,0.743-4.85,2.086-1.75,3.793,1.29,14.627-4.52,14.935-1.94.106-3.54-1.227-4.61-7.739-0.4-2.487-.85-5.819-1.61-9.143-1.13-4.989-2.02-6.211-1.82-8.736,0.18-2.376,1.04-3.961,5.01-6.26a21.15,21.15,0,0,1,6.17-2.037C5403.55,137.731,5407.42,137.715,5407.21,136.446Z" transform="translate(-5372 -130)"/>
</svg>
