<?xml version="1.0" standalone="no"?>
<!DOCTYPE svg PUBLIC "-//W3C//DTD SVG 20010904//EN"
 "http://www.w3.org/TR/2001/REC-SVG-20010904/DTD/svg10.dtd">
<svg version="1.0" xmlns="http://www.w3.org/2000/svg"
 width="276.000000pt" height="276.000000pt" viewBox="0 0 276.000000 276.000000"
 preserveAspectRatio="xMidYMid meet">
<metadata>
Created by potrace 1.11, written by Peter Selinger 2001-2013
</metadata>
<g transform="translate(0.000000,276.000000) scale(0.100000,-0.100000)"
fill="#000000" stroke="none">
<path d="M2141 2636 c-19 -5 -51 -26 -72 -47 -115 -113 -45 -303 117 -317 101
-8 191 68 199 170 11 132 -116 233 -244 194z"/>
<path d="M1140 2449 c-155 -18 -334 -70 -470 -139 -380 -191 -568 -414 -646
-765 -4 -16 -8 -83 -10 -147 -5 -219 59 -383 256 -662 33 -47 260 -268 338
-330 307 -242 612 -342 887 -290 325 61 609 308 815 708 175 340 204 682 77
920 -69 129 -215 239 -364 272 -58 12 -289 12 -358 -2 -216 -41 -345 -137
-345 -255 0 -56 26 -108 67 -132 35 -20 153 -24 249 -9 60 10 97 6 135 -13 87
-46 87 -163 -1 -221 -20 -13 -75 -35 -121 -48 -47 -13 -98 -29 -114 -37 -62
-30 -82 -107 -85 -329 -3 -244 -13 -312 -56 -387 -32 -55 -71 -82 -130 -87
-102 -10 -166 59 -210 226 -19 75 -58 283 -68 368 -6 49 -21 128 -43 225 -13
61 -26 118 -28 128 -2 9 -18 68 -36 130 -36 123 -44 240 -20 309 54 160 321
310 631 352 25 3 68 8 95 11 186 21 245 48 211 97 -31 44 -92 70 -221 95 -88
16 -332 23 -435 12z"/>
<path d="M2640 2002 c-34 -11 -60 -46 -60 -80 0 -46 48 -95 87 -88 15 2 31 5
35 5 21 3 48 48 48 81 0 57 -57 100 -110 82z"/>
<path d="M231 398 c-14 -5 -30 -16 -36 -25 -17 -23 -8 -74 17 -95 61 -53 149
30 99 94 -24 30 -48 38 -80 26z"/>
</g>
</svg>
